<svg data-v-423bf9ae="" xmlns="http://www.w3.org/2000/svg" viewBox="0 0 496 93" class="iconLeftSlogan"><!----><!----><!----><g data-v-423bf9ae="" id="be81f03b-27ec-4fef-a488-006669c296d7" fill="black" transform="matrix(5.494505456117445,0,0,5.494505456117445,74.27094756847214,-23.516484028138628)"><path d="M1.82 5.75L0.98 5.75L0.98 5.19L4.06 5.19L4.06 5.19Q7.50 5.19 8.37 6.85L8.37 6.85L8.37 6.85Q8.72 7.49 8.72 8.41L8.72 8.41L8.72 8.41Q8.72 9.34 8.38 9.98L8.38 9.98L8.38 9.98Q8.04 10.63 7.38 10.98L7.38 10.98L7.38 10.98Q6.15 11.63 4.06 11.63L4.06 11.63L3.92 11.63L3.92 14.43L5.04 14.43L5.04 14.99L0.98 14.99L0.98 14.43L1.82 14.43L1.82 5.75ZM4.06 5.75L4.06 5.75L3.92 5.75L3.92 11.07L4.06 11.07L4.06 11.07Q5.17 11.07 5.89 10.37L5.89 10.37L5.89 10.37Q6.62 9.67 6.62 8.41L6.62 8.41L6.62 8.41Q6.62 7.15 5.89 6.45L5.89 6.45L5.89 6.45Q5.17 5.75 4.06 5.75ZM12.87 5.14L12.87 5.14L12.87 8.74L12.87 8.74Q13.36 8.20 13.92 7.99L13.92 7.99L13.92 7.99Q14.49 7.78 15.37 7.78L15.37 7.78L15.37 7.78Q16.24 7.78 16.79 8.34L16.79 8.34L16.79 8.34Q17.35 8.89 17.35 9.84L17.35 9.84L17.35 13.44L17.35 13.44Q17.35 13.82 17.53 14.04L17.53 14.04L17.53 14.04Q17.71 14.25 18.09 14.25L18.09 14.25L18.09 14.25Q18.47 14.25 18.96 13.85L18.96 13.85L19.21 14.18L19.21 14.18Q18.09 15.20 16.97 15.20L16.97 15.20L16.97 15.20Q15.25 15.20 15.25 13.15L15.25 13.15L15.25 9.55L15.25 9.55Q15.25 9.11 14.98 8.88L14.98 8.88L14.98 8.88Q14.71 8.64 14.24 8.64L14.24 8.64L14.24 8.64Q13.76 8.64 13.31 9.03L13.31 9.03L13.31 9.03Q12.87 9.42 12.87 10.05L12.87 10.05L12.87 14.99L10.77 14.99L10.77 4.96L10.77 4.96Q10.00 5.15 9.59 5.64L9.59 5.64L9.21 5.21L9.21 5.21Q9.62 4.79 10.24 4.54L10.24 4.54L10.24 4.54Q10.86 4.28 11.47 4.28L11.47 4.28L11.47 4.28Q12.08 4.28 12.47 4.53L12.47 4.53L12.47 4.53Q12.87 4.77 12.87 5.14ZM20.87 14.13L20.87 14.13L20.87 14.13Q19.84 13.06 19.84 11.49L19.84 11.49L19.84 11.49Q19.84 9.93 20.87 8.86L20.87 8.86L20.87 8.86Q21.90 7.78 23.55 7.78L23.55 7.78L23.55 7.78Q25.20 7.78 26.23 8.86L26.23 8.86L26.23 8.86Q27.26 9.93 27.26 11.49L27.26 11.49L27.26 11.49Q27.26 13.06 26.23 14.13L26.23 14.13L26.23 14.13Q25.20 15.20 23.55 15.20L23.55 15.20L23.55 15.20Q21.90 15.20 20.87 14.13ZM22.40 9.25L22.40 9.25L22.40 9.25Q22.01 10.12 22.01 11.49L22.01 11.49L22.01 11.49Q22.01 12.87 22.40 13.74L22.40 13.74L22.40 13.74Q22.79 14.62 23.56 14.62L23.56 14.62L23.56 14.62Q24.33 14.62 24.72 13.74L24.72 13.74L24.72 13.74Q25.12 12.87 25.12 11.49L25.12 11.49L25.12 11.49Q25.12 10.12 24.72 9.25L24.72 9.25L24.72 9.25Q24.33 8.37 23.56 8.37L23.56 8.37L23.56 8.37Q22.79 8.37 22.40 9.25ZM29.90 7.99L29.90 7.99L29.90 7.99Q31.05 7.99 31.98 8.69L31.98 8.69L31.98 8.69Q32.51 8.19 33.07 7.99L33.07 7.99L33.07 7.99Q33.63 7.78 34.50 7.78L34.50 7.78L34.50 7.78Q35.38 7.78 35.93 8.34L35.93 8.34L35.93 8.34Q36.48 8.89 36.48 9.84L36.48 9.84L36.48 13.44L36.48 13.44Q36.48 13.82 36.67 14.04L36.67 14.04L36.67 14.04Q36.85 14.25 37.23 14.25L37.23 14.25L37.23 14.25Q37.60 14.25 38.09 13.85L38.09 13.85L38.35 14.18L38.35 14.18Q37.23 15.20 36.11 15.20L36.11 15.20L36.11 15.20Q34.38 15.20 34.38 13.15L34.38 13.15L34.38 9.55L34.38 9.55Q34.38 9.11 34.12 8.88L34.12 8.88L34.12 8.88Q33.85 8.64 33.38 8.64L33.38 8.64L33.38 8.64Q32.91 8.64 32.46 9.02L32.46 9.02L32.46 9.02Q32.00 9.39 32.00 10.00L32.00 10.00L32.00 14.99L29.90 14.99L29.90 8.55L29.90 8.55Q29.27 8.55 28.78 8.76L28.78 8.76L28.59 8.25L28.59 8.25Q29.19 7.99 29.90 7.99ZM41.90 11.76L41.90 11.76Q42.81 11.68 43.31 11.07L43.31 11.07L43.31 11.07Q43.81 10.46 43.81 9.84L43.81 9.84L43.81 9.84Q43.81 9.21 43.53 8.88L43.53 8.88L43.53 8.88Q43.26 8.54 42.71 8.54L42.71 8.54L42.71 8.54Q42.15 8.54 41.65 9.32L41.65 9.32L41.65 9.32Q41.15 10.11 41.15 11.42L41.15 11.42L41.15 11.42Q41.15 12.74 41.62 13.54L41.62 13.54L41.62 13.54Q42.10 14.34 42.98 14.34L42.98 14.34L42.98 14.34Q44.32 14.34 45.26 13.29L45.26 13.29L45.65 13.54L45.65 13.54Q45.18 14.29 44.39 14.75L44.39 14.75L44.39 14.75Q43.61 15.20 42.63 15.20L42.63 15.20L42.63 15.20Q40.96 15.20 39.97 14.11L39.97 14.11L39.97 14.11Q38.98 13.01 38.98 11.45L38.98 11.45L38.98 11.45Q38.98 9.90 40.03 8.84L40.03 8.84L40.03 8.84Q41.09 7.78 42.97 7.78L42.97 7.78L42.97 7.78Q44.20 7.78 44.90 8.36L44.90 8.36L44.90 8.36Q45.60 8.93 45.60 9.81L45.60 9.81L45.60 9.81Q45.60 10.70 44.82 11.45L44.82 11.45L44.82 11.45Q44.04 12.19 42.77 12.19L42.77 12.19L42.77 12.19Q42.34 12.19 41.93 12.10L41.93 12.10L41.90 11.76ZM56.78 5.75L55.94 5.75L55.94 14.43L56.78 14.43L56.78 14.99L53.00 14.99L53.00 14.43L53.84 14.43L53.84 11.17L50.34 11.17L50.34 14.43L51.18 14.43L51.18 14.99L47.40 14.99L47.40 14.43L48.24 14.43L48.24 5.75L47.40 5.75L47.40 5.19L51.18 5.19L51.18 5.75L50.34 5.75L50.34 10.54L53.84 10.54L53.84 5.75L53.00 5.75L53.00 5.19L56.78 5.19L56.78 5.75ZM61.60 8.64L61.60 8.64L61.60 13.44L61.60 13.44Q61.60 13.87 61.87 14.11L61.87 14.11L61.87 14.11Q62.13 14.35 62.61 14.35L62.61 14.35L62.61 14.35Q63.08 14.35 63.53 13.96L63.53 13.96L63.53 13.96Q63.98 13.57 63.98 12.94L63.98 12.94L63.98 7.99L66.08 7.99L66.08 13.44L66.08 13.44Q66.08 13.82 66.26 14.04L66.26 14.04L66.26 14.04Q66.44 14.25 66.82 14.25L66.82 14.25L66.82 14.25Q67.20 14.25 67.69 13.85L67.69 13.85L67.94 14.18L67.94 14.18Q66.82 15.20 65.66 15.20L65.66 15.20L65.66 15.20Q64.50 15.20 64.12 14.17L64.12 14.17L64.12 14.17Q63.57 14.74 62.99 14.97L62.99 14.97L62.99 14.97Q62.41 15.20 61.51 15.20L61.51 15.20L61.51 15.20Q60.61 15.20 60.05 14.65L60.05 14.65L60.05 14.65Q59.50 14.10 59.50 13.15L59.50 13.15L59.50 8.46L59.50 8.46Q58.73 8.65 58.32 9.14L58.32 9.14L57.95 8.71L57.95 8.71Q58.35 8.29 58.98 8.04L58.98 8.04L58.98 8.04Q59.60 7.78 60.21 7.78L60.21 7.78L60.21 7.78Q60.82 7.78 61.21 8.03L61.21 8.03L61.21 8.03Q61.60 8.27 61.60 8.64ZM71.32 5.14L71.32 5.14L71.32 8.89L71.32 8.89Q72.06 7.78 73.37 7.78L73.37 7.78L73.37 7.78Q74.98 7.78 75.82 8.83L75.82 8.83L75.82 8.83Q76.66 9.87 76.66 11.49L76.66 11.49L76.66 11.49Q76.66 13.10 75.76 14.15L75.76 14.15L75.76 14.15Q74.86 15.20 73.23 15.20L73.23 15.20L73.23 15.20Q71.99 15.20 71.32 14.21L71.32 14.21L71.32 14.99L69.22 14.99L69.22 4.96L69.22 4.96Q68.45 5.15 68.04 5.64L68.04 5.64L67.66 5.21L67.66 5.21Q68.07 4.79 68.69 4.54L68.69 4.54L68.69 4.54Q69.31 4.28 69.92 4.28L69.92 4.28L69.92 4.28Q70.53 4.28 70.92 4.53L70.92 4.53L70.92 4.53Q71.32 4.77 71.32 5.14ZM74.10 13.62L74.10 13.62L74.10 13.62Q74.49 12.84 74.49 11.49L74.49 11.49L74.49 11.49Q74.49 10.15 74.10 9.37L74.10 9.37L74.10 9.37Q73.71 8.58 72.91 8.58L72.91 8.58L72.91 8.58Q72.10 8.58 71.67 9.37L71.67 9.37L71.67 9.37Q71.25 10.16 71.25 11.49L71.25 11.49L71.25 11.49Q71.25 12.82 71.67 13.62L71.67 13.62L71.67 13.62Q72.10 14.41 72.91 14.41L72.91 14.41L72.91 14.41Q73.71 14.41 74.10 13.62Z"></path></g><!----><g data-v-423bf9ae="" id="eecce65a-f52c-420c-bece-662bf51761ee" transform="matrix(1.011111111111111,0,0,1.011111111111111,-18.02777777777778,-3.049999999999997)" stroke="none" fill="black"><switch><g><path d="M77 10.274A6.275 6.275 0 0 0 70.726 4H32.274A6.274 6.274 0 0 0 26 10.274v78.451A6.275 6.275 0 0 0 32.274 95h38.451A6.276 6.276 0 0 0 77 88.726V10.274zM44.171 8h15.125c.523 0 .946-.022.946.5s-.423.5-.946.5H44.171c-.522 0-.945.022-.945-.5s.423-.5.945-.5zM54 93h-5c-1.528 0-3-.972-3-2.5s.332-2.5 1.86-2.5h7.747c1.528 0 1.393.972 1.393 2.5S55.528 93 54 93zm21-8H28V12h47v73z"></path><path d="M64.598 51.008L52.97 39.638a3 3 0 0 0-4.196 4.29L50.893 46H26c-4.75 0-8-3.718-8-3.718v14S21.25 60 26 60h25.61l-2.625 2.685a3 3 0 0 0 4.291 4.195l11.37-11.629a3.002 3.002 0 0 0-.048-4.243z"></path></g></switch></g><!----><g data-v-423bf9ae="" id="a5224547-a4b7-4542-bb26-65701988fa51" fill="black" transform="matrix(1.3848111647080315,0,0,1.3848111647080315,78.76927347199631,52.13427111668934)"><path d="M0.64 15.68L0.64 5.88L2.88 5.88L4.20 15.18L4.37 15.18L5.68 5.88L7.92 5.88L7.92 15.68L6.83 15.68L6.83 6.38L6.66 6.38L5.35 15.68L3.22 15.68L1.90 6.38L1.74 6.38L1.74 15.68L0.64 15.68ZM16.41 11.87L16.41 9.69L16.41 9.69Q16.41 7.78 17.32 6.73L17.32 6.73L17.32 6.73Q18.23 5.68 19.85 5.68L19.85 5.68L19.85 5.68Q21.48 5.68 22.39 6.73L22.39 6.73L22.39 6.73Q23.30 7.78 23.30 9.69L23.30 9.69L23.30 11.87L23.30 11.87Q23.30 13.83 22.39 14.85L22.39 14.85L22.39 14.85Q21.48 15.88 19.85 15.88L19.85 15.88L19.85 15.88Q18.23 15.88 17.32 14.85L17.32 14.85L17.32 14.85Q16.41 13.83 16.41 11.87L16.41 11.87ZM19.85 14.78L19.85 14.78L19.85 14.78Q20.99 14.78 21.55 14.01L21.55 14.01L21.55 14.01Q22.12 13.23 22.12 11.79L22.12 11.79L22.12 9.77L22.12 9.77Q22.12 8.43 21.55 7.60L21.55 7.60L21.55 7.60Q20.99 6.78 19.85 6.78L19.85 6.78L19.85 6.78Q18.72 6.78 18.15 7.60L18.15 7.60L18.15 7.60Q17.58 8.43 17.58 9.77L17.58 9.77L17.58 11.79L17.58 11.79Q17.58 13.23 18.15 14.01L18.15 14.01L18.15 14.01Q18.72 14.78 19.85 14.78ZM31.93 15.68L31.93 14.59L32.77 14.59L32.77 6.97L31.93 6.97L31.93 5.88L35.90 5.88L35.90 5.88Q36.60 5.88 37.13 6.08L37.13 6.08L37.13 6.08Q37.67 6.27 38.05 6.61L38.05 6.61L38.05 6.61Q38.42 6.94 38.60 7.41L38.60 7.41L38.60 7.41Q38.79 7.88 38.79 8.43L38.79 8.43L38.79 8.60L38.79 8.60Q38.79 9.00 38.67 9.34L38.67 9.34L38.67 9.34Q38.54 9.67 38.32 9.94L38.32 9.94L38.32 9.94Q38.09 10.21 37.79 10.39L37.79 10.39L37.79 10.39Q37.49 10.58 37.14 10.68L37.14 10.68L37.14 10.85L37.14 10.85Q37.84 11.05 38.32 11.60L38.32 11.60L38.32 11.60Q38.79 12.15 38.79 12.95L38.79 12.95L38.79 13.12L38.79 13.12Q38.79 13.66 38.60 14.13L38.60 14.13L38.60 14.13Q38.42 14.60 38.05 14.95L38.05 14.95L38.05 14.95Q37.67 15.29 37.13 15.48L37.13 15.48L37.13 15.48Q36.60 15.68 35.90 15.68L35.90 15.68L31.93 15.68ZM33.95 11.31L33.95 14.59L35.81 14.59L35.81 14.59Q36.64 14.59 37.16 14.17L37.16 14.17L37.16 14.17Q37.67 13.76 37.67 13.03L37.67 13.03L37.67 12.95L37.67 12.95Q37.67 12.19 37.18 11.75L37.18 11.75L37.18 11.75Q36.69 11.31 35.85 11.31L35.85 11.31L33.95 11.31ZM33.95 6.97L33.95 10.22L35.85 10.22L35.85 10.22Q36.69 10.22 37.18 9.79L37.18 9.79L37.18 9.79Q37.67 9.35 37.67 8.60L37.67 8.60L37.67 8.51L37.67 8.51Q37.67 7.80 37.16 7.38L37.16 7.38L37.16 7.38Q36.64 6.97 35.81 6.97L35.81 6.97L33.95 6.97ZM47.88 6.97L47.88 5.88L54.10 5.88L54.10 6.97L51.58 6.97L51.58 14.59L54.10 14.59L54.10 15.68L47.88 15.68L47.88 14.59L50.40 14.59L50.40 6.97L47.88 6.97ZM63.49 15.68L63.49 5.88L64.67 5.88L64.67 14.59L69.79 14.59L69.79 15.68L63.49 15.68ZM79.16 15.68L79.16 5.88L85.09 5.88L85.09 6.97L80.33 6.97L80.33 10.22L85.01 10.22L85.01 11.31L80.33 11.31L80.33 14.59L85.18 14.59L85.18 15.68L79.16 15.68ZM112.32 12.07L112.32 10.98L116.69 10.98L116.69 15.68L115.60 15.68L115.60 14.50L115.43 14.50L115.43 14.50Q115.19 15.12 114.59 15.50L114.59 15.50L114.59 15.50Q113.99 15.88 113.19 15.88L113.19 15.88L113.19 15.88Q111.61 15.88 110.70 14.85L110.70 14.85L110.70 14.85Q109.80 13.83 109.80 11.87L109.80 11.87L109.80 9.69L109.80 9.69Q109.80 7.78 110.71 6.73L110.71 6.73L110.71 6.73Q111.62 5.68 113.25 5.68L113.25 5.68L113.25 5.68Q114.09 5.68 114.73 5.96L114.73 5.96L114.73 5.96Q115.37 6.23 115.81 6.71L115.81 6.71L115.81 6.71Q116.24 7.20 116.47 7.85L116.47 7.85L116.47 7.85Q116.69 8.50 116.69 9.24L116.69 9.24L116.69 9.41L115.51 9.41L115.51 9.24L115.51 9.24Q115.51 8.76 115.38 8.32L115.38 8.32L115.38 8.32Q115.25 7.87 114.97 7.53L114.97 7.53L114.97 7.53Q114.70 7.18 114.28 6.98L114.28 6.98L114.28 6.98Q113.85 6.78 113.25 6.78L113.25 6.78L113.25 6.78Q112.11 6.78 111.55 7.60L111.55 7.60L111.55 7.60Q110.98 8.43 110.98 9.77L110.98 9.77L110.98 11.79L110.98 11.79Q110.98 13.23 111.55 14.01L111.55 14.01L111.55 14.01Q112.11 14.78 113.27 14.78L113.27 14.78L113.27 14.78Q114.32 14.78 114.92 14.11L114.92 14.11L114.92 14.11Q115.51 13.44 115.51 12.24L115.51 12.24L115.51 12.07L112.32 12.07ZM125.86 15.68L125.86 5.88L131.80 5.88L131.80 6.97L127.04 6.97L127.04 10.22L131.71 10.22L131.71 11.31L127.04 11.31L127.04 14.59L131.88 14.59L131.88 15.68L125.86 15.68ZM141.43 15.68L141.43 5.88L147.36 5.88L147.36 6.97L142.60 6.97L142.60 10.22L147.28 10.22L147.28 11.31L142.60 11.31L142.60 14.59L147.45 14.59L147.45 15.68L141.43 15.68ZM158.10 11.31L158.10 15.68L156.93 15.68L156.93 5.88L158.10 5.88L158.10 10.22L158.42 10.22L162.19 5.88L163.65 5.88L163.65 5.96L159.59 10.70L159.59 10.86L163.81 15.60L163.81 15.68L162.33 15.68L158.42 11.31L158.10 11.31ZM193.41 9.21L193.41 8.71L193.41 8.71Q193.41 8.23 193.22 7.87L193.22 7.87L193.22 7.87Q193.03 7.50 192.71 7.27L192.71 7.27L192.71 7.27Q192.39 7.03 191.97 6.90L191.97 6.90L191.97 6.90Q191.55 6.78 191.09 6.78L191.09 6.78L191.09 6.78Q190.68 6.78 190.32 6.88L190.32 6.88L190.32 6.88Q189.95 6.99 189.67 7.18L189.67 7.18L189.67 7.18Q189.38 7.38 189.21 7.66L189.21 7.66L189.21 7.66Q189.04 7.95 189.04 8.33L189.04 8.33L189.04 8.41L189.04 8.41Q189.04 8.82 189.21 9.11L189.21 9.11L189.21 9.11Q189.38 9.39 189.71 9.60L189.71 9.60L189.71 9.60Q190.04 9.80 190.53 9.93L190.53 9.93L190.53 9.93Q191.02 10.07 191.67 10.16L191.67 10.16L191.67 10.16Q193.21 10.40 193.94 11.07L193.94 11.07L193.94 11.07Q194.67 11.73 194.67 12.85L194.67 12.85L194.67 13.02L194.67 13.02Q194.67 13.65 194.45 14.17L194.45 14.17L194.45 14.17Q194.24 14.70 193.81 15.08L193.81 15.08L193.81 15.08Q193.38 15.46 192.75 15.67L192.75 15.67L192.75 15.67Q192.12 15.88 191.30 15.88L191.30 15.88L191.30 15.88Q190.36 15.88 189.64 15.60L189.64 15.60L189.64 15.60Q188.92 15.33 188.43 14.85L188.43 14.85L188.43 14.85Q187.95 14.36 187.70 13.71L187.70 13.71L187.70 13.71Q187.45 13.06 187.45 12.29L187.45 12.29L187.45 11.87L188.62 11.87L188.62 12.21L188.62 12.21Q188.62 13.50 189.33 14.14L189.33 14.14L189.33 14.14Q190.04 14.78 191.30 14.78L191.30 14.78L191.30 14.78Q192.39 14.78 192.94 14.30L192.94 14.30L192.94 14.30Q193.49 13.82 193.49 13.02L193.49 13.02L193.49 12.94L193.49 12.94Q193.49 12.17 192.93 11.76L192.93 11.76L192.93 11.76Q192.36 11.35 191.09 11.17L191.09 11.17L191.09 11.17Q190.34 11.07 189.75 10.87L189.75 10.87L189.75 10.87Q189.15 10.67 188.73 10.34L188.73 10.34L188.73 10.34Q188.31 10.01 188.09 9.55L188.09 9.55L188.09 9.55Q187.87 9.09 187.87 8.46L187.87 8.46L187.87 8.29L187.87 8.29Q187.87 7.71 188.10 7.24L188.10 7.24L188.10 7.24Q188.34 6.76 188.77 6.41L188.77 6.41L188.77 6.41Q189.20 6.06 189.79 5.87L189.79 5.87L189.79 5.87Q190.39 5.68 191.10 5.68L191.10 5.68L191.10 5.68Q191.93 5.68 192.58 5.92L192.58 5.92L192.58 5.92Q193.23 6.16 193.68 6.56L193.68 6.56L193.68 6.56Q194.12 6.96 194.36 7.50L194.36 7.50L194.36 7.50Q194.59 8.04 194.59 8.62L194.59 8.62L194.59 9.21L193.41 9.21ZM203.56 6.97L203.56 5.88L209.78 5.88L209.78 6.97L207.26 6.97L207.26 14.59L209.78 14.59L209.78 15.68L203.56 15.68L203.56 14.59L206.08 14.59L206.08 6.97L203.56 6.97ZM218.79 6.97L218.79 5.88L225.68 5.88L225.68 6.97L222.82 6.97L222.82 15.68L221.65 15.68L221.65 6.97L218.79 6.97ZM234.84 15.68L234.84 5.88L240.77 5.88L240.77 6.97L236.01 6.97L236.01 10.22L240.69 10.22L240.69 11.31L236.01 11.31L236.01 14.59L240.86 14.59L240.86 15.68L234.84 15.68Z"></path></g></svg>