<svg data-v-423bf9ae="" xmlns="http://www.w3.org/2000/svg" viewBox="0 0 415.8241745957583 60" class="font"><!----><!----><!----><g data-v-423bf9ae="" id="22cac4c5-e446-4ca2-b4ce-5ff7ad2088d1" fill="white" transform="matrix(5.494505456117445,0,0,5.494505456117445,-5.384615786020049,-23.516484028138628)"><path d="M1.82 5.75L0.98 5.75L0.98 5.19L4.06 5.19L4.06 5.19Q7.50 5.19 8.37 6.85L8.37 6.85L8.37 6.85Q8.72 7.49 8.72 8.41L8.72 8.41L8.72 8.41Q8.72 9.34 8.38 9.98L8.38 9.98L8.38 9.98Q8.04 10.63 7.38 10.98L7.38 10.98L7.38 10.98Q6.15 11.63 4.06 11.63L4.06 11.63L3.92 11.63L3.92 14.43L5.04 14.43L5.04 14.99L0.98 14.99L0.98 14.43L1.82 14.43L1.82 5.75ZM4.06 5.75L4.06 5.75L3.92 5.75L3.92 11.07L4.06 11.07L4.06 11.07Q5.17 11.07 5.89 10.37L5.89 10.37L5.89 10.37Q6.62 9.67 6.62 8.41L6.62 8.41L6.62 8.41Q6.62 7.15 5.89 6.45L5.89 6.45L5.89 6.45Q5.17 5.75 4.06 5.75ZM12.87 5.14L12.87 5.14L12.87 8.74L12.87 8.74Q13.36 8.20 13.92 7.99L13.92 7.99L13.92 7.99Q14.49 7.78 15.37 7.78L15.37 7.78L15.37 7.78Q16.24 7.78 16.79 8.34L16.79 8.34L16.79 8.34Q17.35 8.89 17.35 9.84L17.35 9.84L17.35 13.44L17.35 13.44Q17.35 13.82 17.53 14.04L17.53 14.04L17.53 14.04Q17.71 14.25 18.09 14.25L18.09 14.25L18.09 14.25Q18.47 14.25 18.96 13.85L18.96 13.85L19.21 14.18L19.21 14.18Q18.09 15.20 16.97 15.20L16.97 15.20L16.97 15.20Q15.25 15.20 15.25 13.15L15.25 13.15L15.25 9.55L15.25 9.55Q15.25 9.11 14.98 8.88L14.98 8.88L14.98 8.88Q14.71 8.64 14.24 8.64L14.24 8.64L14.24 8.64Q13.76 8.64 13.31 9.03L13.31 9.03L13.31 9.03Q12.87 9.42 12.87 10.05L12.87 10.05L12.87 14.99L10.77 14.99L10.77 4.96L10.77 4.96Q10.00 5.15 9.59 5.64L9.59 5.64L9.21 5.21L9.21 5.21Q9.62 4.79 10.24 4.54L10.24 4.54L10.24 4.54Q10.86 4.28 11.47 4.28L11.47 4.28L11.47 4.28Q12.08 4.28 12.47 4.53L12.47 4.53L12.47 4.53Q12.87 4.77 12.87 5.14ZM20.87 14.13L20.87 14.13L20.87 14.13Q19.84 13.06 19.84 11.49L19.84 11.49L19.84 11.49Q19.84 9.93 20.87 8.86L20.87 8.86L20.87 8.86Q21.90 7.78 23.55 7.78L23.55 7.78L23.55 7.78Q25.20 7.78 26.23 8.86L26.23 8.86L26.23 8.86Q27.26 9.93 27.26 11.49L27.26 11.49L27.26 11.49Q27.26 13.06 26.23 14.13L26.23 14.13L26.23 14.13Q25.20 15.20 23.55 15.20L23.55 15.20L23.55 15.20Q21.90 15.20 20.87 14.13ZM22.40 9.25L22.40 9.25L22.40 9.25Q22.01 10.12 22.01 11.49L22.01 11.49L22.01 11.49Q22.01 12.87 22.40 13.74L22.40 13.74L22.40 13.74Q22.79 14.62 23.56 14.62L23.56 14.62L23.56 14.62Q24.33 14.62 24.72 13.74L24.72 13.74L24.72 13.74Q25.12 12.87 25.12 11.49L25.12 11.49L25.12 11.49Q25.12 10.12 24.72 9.25L24.72 9.25L24.72 9.25Q24.33 8.37 23.56 8.37L23.56 8.37L23.56 8.37Q22.79 8.37 22.40 9.25ZM29.90 7.99L29.90 7.99L29.90 7.99Q31.05 7.99 31.98 8.69L31.98 8.69L31.98 8.69Q32.51 8.19 33.07 7.99L33.07 7.99L33.07 7.99Q33.63 7.78 34.50 7.78L34.50 7.78L34.50 7.78Q35.38 7.78 35.93 8.34L35.93 8.34L35.93 8.34Q36.48 8.89 36.48 9.84L36.48 9.84L36.48 13.44L36.48 13.44Q36.48 13.82 36.67 14.04L36.67 14.04L36.67 14.04Q36.85 14.25 37.23 14.25L37.23 14.25L37.23 14.25Q37.60 14.25 38.09 13.85L38.09 13.85L38.35 14.18L38.35 14.18Q37.23 15.20 36.11 15.20L36.11 15.20L36.11 15.20Q34.38 15.20 34.38 13.15L34.38 13.15L34.38 9.55L34.38 9.55Q34.38 9.11 34.12 8.88L34.12 8.88L34.12 8.88Q33.85 8.64 33.38 8.64L33.38 8.64L33.38 8.64Q32.91 8.64 32.46 9.02L32.46 9.02L32.46 9.02Q32.00 9.39 32.00 10.00L32.00 10.00L32.00 14.99L29.90 14.99L29.90 8.55L29.90 8.55Q29.27 8.55 28.78 8.76L28.78 8.76L28.59 8.25L28.59 8.25Q29.19 7.99 29.90 7.99ZM41.90 11.76L41.90 11.76Q42.81 11.68 43.31 11.07L43.31 11.07L43.31 11.07Q43.81 10.46 43.81 9.84L43.81 9.84L43.81 9.84Q43.81 9.21 43.53 8.88L43.53 8.88L43.53 8.88Q43.26 8.54 42.71 8.54L42.71 8.54L42.71 8.54Q42.15 8.54 41.65 9.32L41.65 9.32L41.65 9.32Q41.15 10.11 41.15 11.42L41.15 11.42L41.15 11.42Q41.15 12.74 41.62 13.54L41.62 13.54L41.62 13.54Q42.10 14.34 42.98 14.34L42.98 14.34L42.98 14.34Q44.32 14.34 45.26 13.29L45.26 13.29L45.65 13.54L45.65 13.54Q45.18 14.29 44.39 14.75L44.39 14.75L44.39 14.75Q43.61 15.20 42.63 15.20L42.63 15.20L42.63 15.20Q40.96 15.20 39.97 14.11L39.97 14.11L39.97 14.11Q38.98 13.01 38.98 11.45L38.98 11.45L38.98 11.45Q38.98 9.90 40.03 8.84L40.03 8.84L40.03 8.84Q41.09 7.78 42.97 7.78L42.97 7.78L42.97 7.78Q44.20 7.78 44.90 8.36L44.90 8.36L44.90 8.36Q45.60 8.93 45.60 9.81L45.60 9.81L45.60 9.81Q45.60 10.70 44.82 11.45L44.82 11.45L44.82 11.45Q44.04 12.19 42.77 12.19L42.77 12.19L42.77 12.19Q42.34 12.19 41.93 12.10L41.93 12.10L41.90 11.76ZM56.78 5.75L55.94 5.75L55.94 14.43L56.78 14.43L56.78 14.99L53.00 14.99L53.00 14.43L53.84 14.43L53.84 11.17L50.34 11.17L50.34 14.43L51.18 14.43L51.18 14.99L47.40 14.99L47.40 14.43L48.24 14.43L48.24 5.75L47.40 5.75L47.40 5.19L51.18 5.19L51.18 5.75L50.34 5.75L50.34 10.54L53.84 10.54L53.84 5.75L53.00 5.75L53.00 5.19L56.78 5.19L56.78 5.75ZM61.60 8.64L61.60 8.64L61.60 13.44L61.60 13.44Q61.60 13.87 61.87 14.11L61.87 14.11L61.87 14.11Q62.13 14.35 62.61 14.35L62.61 14.35L62.61 14.35Q63.08 14.35 63.53 13.96L63.53 13.96L63.53 13.96Q63.98 13.57 63.98 12.94L63.98 12.94L63.98 7.99L66.08 7.99L66.08 13.44L66.08 13.44Q66.08 13.82 66.26 14.04L66.26 14.04L66.26 14.04Q66.44 14.25 66.82 14.25L66.82 14.25L66.82 14.25Q67.20 14.25 67.69 13.85L67.69 13.85L67.94 14.18L67.94 14.18Q66.82 15.20 65.66 15.20L65.66 15.20L65.66 15.20Q64.50 15.20 64.12 14.17L64.12 14.17L64.12 14.17Q63.57 14.74 62.99 14.97L62.99 14.97L62.99 14.97Q62.41 15.20 61.51 15.20L61.51 15.20L61.51 15.20Q60.61 15.20 60.05 14.65L60.05 14.65L60.05 14.65Q59.50 14.10 59.50 13.15L59.50 13.15L59.50 8.46L59.50 8.46Q58.73 8.65 58.32 9.14L58.32 9.14L57.95 8.71L57.95 8.71Q58.35 8.29 58.98 8.04L58.98 8.04L58.98 8.04Q59.60 7.78 60.21 7.78L60.21 7.78L60.21 7.78Q60.82 7.78 61.21 8.03L61.21 8.03L61.21 8.03Q61.60 8.27 61.60 8.64ZM71.32 5.14L71.32 5.14L71.32 8.89L71.32 8.89Q72.06 7.78 73.37 7.78L73.37 7.78L73.37 7.78Q74.98 7.78 75.82 8.83L75.82 8.83L75.82 8.83Q76.66 9.87 76.66 11.49L76.66 11.49L76.66 11.49Q76.66 13.10 75.76 14.15L75.76 14.15L75.76 14.15Q74.86 15.20 73.23 15.20L73.23 15.20L73.23 15.20Q71.99 15.20 71.32 14.21L71.32 14.21L71.32 14.99L69.22 14.99L69.22 4.96L69.22 4.96Q68.45 5.15 68.04 5.64L68.04 5.64L67.66 5.21L67.66 5.21Q68.07 4.79 68.69 4.54L68.69 4.54L68.69 4.54Q69.31 4.28 69.92 4.28L69.92 4.28L69.92 4.28Q70.53 4.28 70.92 4.53L70.92 4.53L70.92 4.53Q71.32 4.77 71.32 5.14ZM74.10 13.62L74.10 13.62L74.10 13.62Q74.49 12.84 74.49 11.49L74.49 11.49L74.49 11.49Q74.49 10.15 74.10 9.37L74.10 9.37L74.10 9.37Q73.71 8.58 72.91 8.58L72.91 8.58L72.91 8.58Q72.10 8.58 71.67 9.37L71.67 9.37L71.67 9.37Q71.25 10.16 71.25 11.49L71.25 11.49L71.25 11.49Q71.25 12.82 71.67 13.62L71.67 13.62L71.67 13.62Q72.10 14.41 72.91 14.41L72.91 14.41L72.91 14.41Q73.71 14.41 74.10 13.62Z"></path></g><!----><!----></svg>